<?xml version="1.0" encoding="UTF-8" standalone="no"?>
<!DOCTYPE svg PUBLIC "-//W3C//DTD SVG 1.1//EN" "http://www.w3.org/Graphics/SVG/1.1/DTD/svg11.dtd">
<svg width="100%" height="100%" viewBox="0 0 14217 6386" version="1.1" xmlns="http://www.w3.org/2000/svg" xmlns:xlink="http://www.w3.org/1999/xlink" xml:space="preserve" xmlns:serif="http://www.serif.com/" style="fill-rule:evenodd;clip-rule:evenodd;stroke-linejoin:round;stroke-miterlimit:2;">
    <g transform="matrix(1,0,0,1,-9599.14,-7452.47)">
        <g id="Banner" transform="matrix(1.58085,0,0,1,-20612.7,7452.47)">
            <rect x="19111.2" y="0" width="8993.06" height="6385.73" style="fill:none;"/>
            <g transform="matrix(0.550518,0,0,0.802976,19710.8,1115.94)">
                <g>
                    <g>
                        <g transform="matrix(9.72222,0,0,9.72222,0,-1359.18)">
                            <path d="M154.498,270.703C148.703,281.851 142.908,292.999 137.113,304.147C209.421,304.481 281.729,304.815 354.038,305.148C256.059,353.829 158.081,402.51 60.103,451.191C54.772,461.284 49.441,471.377 44.11,481.471L313.729,481.471C319.45,470.639 325.171,459.807 330.893,448.975C258.42,449.309 185.948,449.642 113.476,449.976C211.732,401.06 309.988,352.144 408.244,303.228C414.066,292.262 419.888,281.297 425.711,270.331C335.306,270.455 244.902,270.579 154.498,270.703Z" style="fill:rgb(28,61,94);fill-rule:nonzero;"/>
                        </g>
                        <g transform="matrix(0,-9.72222,-9.72222,0,4219.91,2860.71)">
                            <path d="M-9.25,370.817C35.681,347.061 80.612,323.305 125.542,299.549L125.542,269.35C120.289,272.128 43.422,312.769 10.242,330.312C3.745,343.814 -2.752,357.315 -9.25,370.817Z" style="fill:rgb(128,164,237);fill-rule:nonzero;"/>
                        </g>
                        <g transform="matrix(0,9.72222,9.72222,0,-738.138,-621.058)">
                            <path d="M232.583,482.453C277.513,458.697 322.444,434.941 367.375,411.185L367.375,380.986C328.941,401.307 290.508,421.627 252.075,441.948C245.577,455.45 239.08,468.952 232.583,482.453Z" style="fill:rgb(128,164,237);fill-rule:nonzero;"/>
                        </g>
                        <g transform="matrix(8.23835,5.16248,5.16248,-8.23835,-1918.76,4719.91)">
                            <clipPath id="_clip1">
                                <path d="M143.141,467.008C169.376,461.042 195.612,455.077 221.848,449.112C217.379,435.088 212.911,421.064 208.442,407.04C182.206,413.005 155.971,418.97 129.735,424.935C134.203,438.959 138.672,452.983 143.141,467.008Z" clip-rule="nonzero"/>
                            </clipPath>
                            <g clip-path="url(#_clip1)">
                                <path d="M142.767,463.294C168.745,458.212 194.722,453.13 220.7,448.049C213.489,435.997 206.279,423.946 199.068,411.895C181.246,415.481 163.423,419.067 145.601,422.652C144.656,436.199 143.712,449.747 142.767,463.294Z" style="fill:rgb(128,164,237);fill-rule:nonzero;"/>
                            </g>
                        </g>
                    </g>
                </g>
            </g>
            <g transform="matrix(0.618966,0,0,0.978489,19462.1,452.309)">
                <g transform="matrix(1.02198,0,0,1.02198,2687.96,1529.2)">
                    <g transform="matrix(2041.67,0,0,2041.67,312.078,1838.23)">
                        <path d="M0.708,-0.212L0.367,-0.212L0.373,-0.119C0.39,-0.092 0.419,-0.084 0.448,-0.084L0.523,-0.104L0.607,-0.176L0.683,-0.125L0.616,-0.062L0.55,-0.019L0.483,0.006L0.411,0.014C0.353,0.014 0.296,-0.001 0.263,-0.055C0.23,-0.111 0.241,-0.18 0.261,-0.237C0.285,-0.31 0.325,-0.372 0.385,-0.42C0.44,-0.464 0.503,-0.489 0.575,-0.489C0.631,-0.489 0.688,-0.475 0.718,-0.422C0.75,-0.366 0.735,-0.293 0.717,-0.238L0.708,-0.212ZM0.625,-0.302C0.63,-0.36 0.603,-0.39 0.544,-0.39L0.504,-0.384L0.466,-0.366L0.432,-0.338L0.404,-0.302L0.625,-0.302Z" style="fill:rgb(28,61,94);fill-rule:nonzero;"/>
                    </g>
                    <g transform="matrix(2041.67,0,0,2041.67,1237.04,1838.23)">
                        <path d="M0.226,0.259L0.116,0.259L0.363,-0.476L0.473,-0.476L0.456,-0.424C0.505,-0.46 0.562,-0.489 0.625,-0.489C0.683,-0.489 0.734,-0.47 0.762,-0.417C0.794,-0.36 0.785,-0.293 0.766,-0.235C0.742,-0.164 0.7,-0.105 0.642,-0.057C0.588,-0.014 0.527,0.014 0.458,0.014C0.404,0.014 0.361,-0.007 0.331,-0.053L0.226,0.259ZM0.653,-0.235C0.665,-0.27 0.672,-0.311 0.654,-0.346C0.637,-0.378 0.608,-0.39 0.574,-0.39C0.531,-0.39 0.494,-0.374 0.461,-0.348L0.387,-0.237C0.375,-0.202 0.369,-0.162 0.387,-0.127C0.404,-0.095 0.436,-0.084 0.47,-0.084C0.512,-0.084 0.548,-0.101 0.579,-0.127L0.653,-0.235Z" style="fill:rgb(28,61,94);fill-rule:nonzero;"/>
                    </g>
                    <g transform="matrix(2041.67,0,0,2041.67,2256.71,1838.23)">
                        <path d="M0.481,-0.825L0.591,-0.825L0.46,-0.436C0.503,-0.466 0.553,-0.489 0.607,-0.489C0.651,-0.489 0.695,-0.477 0.718,-0.437C0.742,-0.395 0.723,-0.329 0.711,-0.292L0.612,0L0.502,0L0.597,-0.281L0.605,-0.364L0.548,-0.39C0.513,-0.39 0.481,-0.38 0.455,-0.354L0.39,-0.23L0.313,0L0.203,0L0.481,-0.825Z" style="fill:rgb(28,61,94);fill-rule:nonzero;"/>
                    </g>
                    <g transform="matrix(2041.67,0,0,2041.67,3138.81,1838.23)">
                        <path d="M0.383,-0.088L0.299,-0.476L0.427,-0.476L0.48,-0.202L0.708,-0.476L0.832,-0.476L0.206,0.259L0.081,0.259L0.383,-0.088Z" style="fill:rgb(28,61,94);fill-rule:nonzero;"/>
                    </g>
                    <g transform="matrix(2041.67,0,0,2041.67,4127.91,1838.23)">
                        <path d="M0.363,-0.476L0.473,-0.476L0.459,-0.433L0.527,-0.477L0.567,-0.489L0.6,-0.46L0.548,-0.36L0.523,-0.382C0.453,-0.382 0.413,-0.295 0.396,-0.247L0.313,0L0.203,0L0.363,-0.476Z" style="fill:rgb(28,61,94);fill-rule:nonzero;"/>
                    </g>
                </g>
            </g>
            <g transform="matrix(0.632573,0,0,1,19277.1,348.758)">
                <g transform="matrix(1,0,0,1,-658.711,-436.945)">
                    <g transform="matrix(1.52159,0,0,0.879331,-52.9107,759.902)">
                        <path d="M1460.83,2478.59C1440.49,2542.93 1420.15,2607.27 1399.82,2671.61L415.923,2671.61C436.259,2607.27 456.595,2542.93 476.931,2478.59L1460.83,2478.59Z" style="fill:rgb(28,61,94);"/>
                    </g>
                </g>
            </g>
            <g transform="matrix(0.632573,0,0,1,19277.1,348.758)">
                <g transform="matrix(0.882542,0,0,1,194.816,0)">
                    <g transform="matrix(1.57703,0,0,0.879331,-548.952,-102.48)">
                        <path d="M1463.51,2480.17C1442.28,2543.99 1421.05,2607.8 1399.82,2671.61L499.168,2671.61C520.398,2607.8 541.627,2543.99 562.857,2480.17L1463.51,2480.17Z" style="fill:rgb(28,61,94);"/>
                    </g>
                </g>
            </g>
            <g transform="matrix(0.632573,0,0,1,19277.1,348.758)">
                <g>
                    <g transform="matrix(0.586529,0,0,0.879331,335.317,780.974)">
                        <path d="M1545,2480.17C1496.6,2543.99 1448.21,2607.8 1399.82,2671.61L499.168,2671.61C547.561,2607.8 595.955,2543.99 644.348,2480.17L1545,2480.17Z" style="fill:rgb(28,61,94);"/>
                    </g>
                </g>
            </g>
            <g transform="matrix(1.40017,0,0,1,-7572.76,40.0824)">
                <g transform="matrix(1.62313,0,0,1.29462,-3353.03,-11587.7)">
                    <path d="M17619.7,12050.5L17619.7,12574.8C17619.7,12637.6 17601.4,12688.6 17578.7,12688.6L15848.6,12688.6C15825.9,12688.6 15807.6,12637.6 15807.6,12574.8L15807.6,12050.5C15807.6,11987.6 15825.9,11936.7 15848.6,11936.7L17578.7,11936.7C17601.4,11936.7 17619.7,11987.6 17619.7,12050.5Z" style="fill:rgb(128,164,237);"/>
                </g>
                <g transform="matrix(0.451784,0,0,1,15336.5,-4319.43)">
                    <g transform="matrix(0.87,0,-0.12524,1.02,3125.55,-177.968)">
                        <g transform="matrix(700,0,0,700,22737.5,8898.42)">
                        </g>
                        <text x="15470.1px" y="8898.42px" style="font-family:'Futura-Medium', 'Futura', sans-serif;font-weight:500;font-size:700px;fill:white;">E<tspan x="15816.2px 15940.8px 16278.3px 16592.3px 16752.2px 16982.6px 17353.6px 17687.8px 17812.4px 18096.3px 18262.6px 18766.6px 19136.6px 19261.2px 19385.9px 19510.5px 19844.6px 20213.9px 20380.3px 20614.6px 20985.6px 21110.3px 21455.3px 21610.3px 21748.2px 22119.3px 22453.4px " y="8898.42px 8898.42px 8898.42px 8898.42px 8898.42px 8898.42px 8898.42px 8898.42px 8898.42px 8898.42px 8898.42px 8898.42px 8898.42px 8898.42px 8898.42px 8898.42px 8898.42px 8898.42px 8898.42px 8898.42px 8898.42px 8898.42px 8898.42px 8898.42px 8898.42px 8898.42px 8898.42px ">lectronic mailing solutions</tspan></text>
                    </g>
                </g>
            </g>
        </g>
    </g>
</svg>
