<?xml version="1.0" encoding="UTF-8" standalone="no"?>
<!DOCTYPE svg PUBLIC "-//W3C//DTD SVG 1.1//EN" "http://www.w3.org/Graphics/SVG/1.1/DTD/svg11.dtd">
<svg width="100%" height="100%" viewBox="0 0 8994 6386" version="1.1" xmlns="http://www.w3.org/2000/svg" xmlns:xlink="http://www.w3.org/1999/xlink" xml:space="preserve" xmlns:serif="http://www.serif.com/" style="fill-rule:evenodd;clip-rule:evenodd;stroke-linejoin:round;stroke-miterlimit:2;">
    <g transform="matrix(1,0,0,1,-9632,0)">
        <g id="Small-Logo" serif:id="Small Logo" transform="matrix(1,0,0,1,-0.462362,0)">
            <rect x="9632.46" y="0" width="8993.06" height="6385.73" style="fill:none;"/>
            <g transform="matrix(1,0,0,1,0.462362,0)">
                <g transform="matrix(1.38818,0,0,1.28082,11725.6,99.3021)">
                    <g>
                        <g>
                            <g transform="matrix(9.72222,0,0,9.72222,0,-1359.18)">
                                <path d="M43.491,270.703C43.567,281.851 43.644,292.999 43.72,304.147C116.204,304.481 188.688,304.815 261.172,305.148C188.833,353.829 116.494,402.51 44.155,451.191C44.14,461.284 44.125,471.377 44.11,481.471L313.729,481.471C313.745,470.639 313.761,459.807 313.778,448.975C241.481,449.309 169.185,449.642 96.888,449.976C169.381,401.06 241.874,352.144 314.367,303.228C314.414,292.262 314.46,281.297 314.507,270.331C224.168,270.455 133.83,270.579 43.491,270.703Z" style="fill:rgb(28,61,94);fill-rule:nonzero;"/>
                            </g>
                            <g transform="matrix(0,-9.72222,-9.72222,0,4219.91,2860.71)">
                                <path d="M-9.25,390.923C35.681,390.831 80.612,390.739 125.542,390.647L125.542,360.448C120.289,360.459 43.422,360.616 10.242,360.684C3.745,370.764 -2.752,380.843 -9.25,390.923Z" style="fill:rgb(128,164,237);fill-rule:nonzero;"/>
                            </g>
                            <g transform="matrix(0,9.72222,9.72222,0,-738.138,-621.058)">
                                <path d="M232.583,391.355C277.513,391.263 322.444,391.171 367.375,391.079L367.375,360.88C328.941,360.959 290.508,361.037 252.075,361.116C245.577,371.196 239.08,381.275 232.583,391.355Z" style="fill:rgb(128,164,237);fill-rule:nonzero;"/>
                            </g>
                            <g transform="matrix(8.23835,5.16248,5.16248,-8.23835,-1918.76,4719.91)">
                                <clipPath id="_clip1">
                                    <path d="M64.63,417.81C99.339,417.154 134.049,416.499 168.758,415.843C168.534,404.479 168.31,393.115 168.086,381.751C133.377,382.406 98.668,383.062 63.959,383.717C64.182,395.081 64.406,406.446 64.63,417.81Z" clip-rule="nonzero"/>
                                </clipPath>
                                <g clip-path="url(#_clip1)">
                                    <path d="M65.573,414.921C99.628,414.901 133.684,414.881 167.739,414.862C163.377,404.596 159.016,394.329 154.654,384.063C131.252,384.153 107.85,384.242 84.447,384.331C78.156,394.528 71.864,404.724 65.573,414.921Z" style="fill:rgb(128,164,237);fill-rule:nonzero;"/>
                                </g>
                            </g>
                        </g>
                    </g>
                </g>
            </g>
        </g>
    </g>
</svg>
