<?xml version="1.0" encoding="UTF-8" standalone="no"?>
<!DOCTYPE svg PUBLIC "-//W3C//DTD SVG 1.1//EN" "http://www.w3.org/Graphics/SVG/1.1/DTD/svg11.dtd">
<svg width="100%" height="100%" viewBox="0 0 8994 6386" version="1.1" xmlns="http://www.w3.org/2000/svg" xmlns:xlink="http://www.w3.org/1999/xlink" xml:space="preserve" xmlns:serif="http://www.serif.com/" style="fill-rule:evenodd;clip-rule:evenodd;stroke-linejoin:round;stroke-miterlimit:2;">
    <g transform="matrix(1,0,0,1,0,-7465.54)">
        <g id="Large-Logo" serif:id="Large Logo" transform="matrix(1,0,0,1,-9479.17,7465.54)">
            <rect x="9479.17" y="0" width="8993.06" height="6385.73" style="fill:none;"/>
            <g transform="matrix(1.38818,0,0,1.28082,11572.8,99.3021)">
                <g>
                    <g>
                        <g transform="matrix(9.72222,0,0,9.72222,0,-1359.18)">
                            <path d="M154.498,270.703C148.703,281.851 142.908,292.999 137.113,304.147C209.421,304.481 281.729,304.815 354.038,305.148C256.059,353.829 158.081,402.51 60.103,451.191C54.772,461.284 49.441,471.377 44.11,481.471L313.729,481.471C319.45,470.639 325.171,459.807 330.893,448.975C258.42,449.309 185.948,449.642 113.476,449.976C211.732,401.06 309.988,352.144 408.244,303.228C414.066,292.262 419.888,281.297 425.711,270.331C335.306,270.455 244.902,270.579 154.498,270.703Z" style="fill:rgb(28,61,94);fill-rule:nonzero;"/>
                        </g>
                        <g transform="matrix(0,-9.72222,-9.72222,0,4219.91,2860.71)">
                            <path d="M-9.25,370.817C35.681,347.061 80.612,323.305 125.542,299.549L125.542,269.35C120.289,272.128 43.422,312.769 10.242,330.312C3.745,343.814 -2.752,357.315 -9.25,370.817Z" style="fill:rgb(128,164,237);fill-rule:nonzero;"/>
                        </g>
                        <g transform="matrix(0,9.72222,9.72222,0,-738.138,-621.058)">
                            <path d="M232.583,482.453C277.513,458.697 322.444,434.941 367.375,411.185L367.375,380.986C328.941,401.307 290.508,421.627 252.075,441.948C245.577,455.45 239.08,468.952 232.583,482.453Z" style="fill:rgb(128,164,237);fill-rule:nonzero;"/>
                        </g>
                        <g transform="matrix(8.23835,5.16248,5.16248,-8.23835,-1918.76,4719.91)">
                            <clipPath id="_clip1">
                                <path d="M143.141,467.008C169.376,461.042 195.612,455.077 221.848,449.112C217.379,435.088 212.911,421.064 208.442,407.04C182.206,413.005 155.971,418.97 129.735,424.935C134.203,438.959 138.672,452.983 143.141,467.008Z" clip-rule="nonzero"/>
                            </clipPath>
                            <g clip-path="url(#_clip1)">
                                <path d="M142.767,463.294C168.745,458.212 194.722,453.13 220.7,448.049C213.489,435.997 206.279,423.946 199.068,411.895C181.246,415.481 163.423,419.067 145.601,422.652C144.656,436.199 143.712,449.747 142.767,463.294Z" style="fill:rgb(128,164,237);fill-rule:nonzero;"/>
                            </g>
                        </g>
                    </g>
                </g>
            </g>
            <g transform="matrix(1.59509,0,0,1.59509,10479,-1124.43)">
                <g transform="matrix(1,0,0,1,-658.711,-436.945)">
                    <g transform="matrix(1.52159,0,0,0.879331,-52.9107,759.902)">
                        <path d="M1460.83,2478.59C1440.49,2542.93 1420.15,2607.27 1399.82,2671.61C1071.85,2671.61 743.887,2671.61 415.923,2671.61C436.259,2607.27 456.595,2542.93 476.931,2478.59L1460.83,2478.59Z" style="fill:rgb(28,61,94);"/>
                    </g>
                </g>
            </g>
            <g transform="matrix(1.59509,0,0,1.59509,10479,-1124.43)">
                <g transform="matrix(0.882542,0,0,1,194.816,0)">
                    <g transform="matrix(1.57703,0,0,0.879331,-548.952,-102.48)">
                        <path d="M1463.51,2480.17C1442.28,2543.99 1421.05,2607.8 1399.82,2671.61L499.168,2671.61C520.398,2607.8 541.627,2543.99 562.857,2480.17L1463.51,2480.17Z" style="fill:rgb(28,61,94);"/>
                    </g>
                </g>
            </g>
            <g transform="matrix(1.59509,0,0,1.59509,10479,-1124.43)">
                <g>
                    <g transform="matrix(0.586529,0,0,0.879331,335.317,780.974)">
                        <path d="M1545,2480.17C1496.6,2543.99 1448.21,2607.8 1399.82,2671.61C1099.6,2671.61 799.384,2671.61 499.168,2671.61C547.561,2607.8 595.955,2543.99 644.348,2480.17L1545,2480.17Z" style="fill:rgb(28,61,94);"/>
                    </g>
                </g>
            </g>
        </g>
    </g>
</svg>
